<svg width="512" height="512" viewBox="0 0 512 512" fill="none" xmlns="http://www.w3.org/2000/svg">
<rect width="512" height="512" fill="#FCC8F3"/>
<path d="M463.942 183.007C463.058 169.591 451.617 159.451 438.254 160.023C414.334 160.023 389.166 181.239 388.958 218.939V309.002C388.958 321.95 399.566 332.61 412.566 332.61H414.698C427.646 332.61 438.306 322.002 438.306 309.002V216.807C435.394 217.431 432.585 218.939 430.869 222.007C430.193 223.255 428.893 223.931 427.593 223.931C426.865 223.931 426.138 223.723 425.462 223.255C423.798 222.111 423.434 219.823 424.474 218.055C428.426 211.191 435.341 209.059 441.373 208.851C443.401 208.799 445.429 208.539 447.301 207.915C457.597 204.431 464.722 194.343 463.942 182.955V183.007Z" fill="black"/>
<path d="M101.092 193.398C71.7643 193.398 48 217.162 48 246.49V280.446C48 309.774 71.7643 333.538 101.092 333.538C130.42 333.538 154.184 309.774 154.184 280.446V246.49C154.184 217.162 130.42 193.398 101.092 193.398ZM104.836 291.002C104.836 292.926 103.172 294.538 101.092 294.538C99.0121 294.538 97.3483 292.978 97.3483 291.002V235.83C97.3483 233.906 99.0121 232.294 101.092 232.294C103.172 232.294 104.836 233.854 104.836 235.83V291.002Z" fill="black"/>
<path d="M356.832 194.041C343.208 194.041 332.185 205.065 332.185 218.689V291.02C332.185 292.944 330.521 294.556 328.441 294.556C326.361 294.556 324.697 292.996 324.697 291.02V218.689C324.697 205.065 313.673 194.041 300.049 194.041C286.425 194.041 275.401 205.065 275.401 218.689V280.568C275.401 309.792 299.165 333.504 328.493 333.504C357.821 333.504 381.584 309.792 381.584 280.568V218.689C381.584 205.065 370.56 194.041 356.936 194.041H356.832Z" fill="black"/>
<path d="M243.158 194.041C229.534 194.041 218.51 205.065 218.51 218.689V291.02C218.51 292.944 216.846 294.556 214.766 294.556C212.686 294.556 211.022 292.996 211.022 291.02V218.689C211.022 205.065 199.998 194.041 186.374 194.041C172.75 194.041 161.727 205.065 161.727 218.689V280.568C161.727 309.792 185.49 333.504 214.818 333.504C244.146 333.504 267.909 309.792 267.909 280.568V218.689C267.909 205.065 256.886 194.041 243.262 194.041H243.158Z" fill="black"/>
</svg>
